<svg width="211" height="139" viewBox="0 0 211 139" fill="none" xmlns="http://www.w3.org/2000/svg">
<g clip-path="url(#clip0_9_133)">
<path d="M3.08522 139.391C2.21287 139.391 1.53878 139.153 1.06296 138.678C0.58713 138.122 0.349216 137.448 0.349216 136.655V58.9767C0.349216 58.1043 0.58713 57.4303 1.06296 56.9544C1.53878 56.3993 2.21287 56.1217 3.08522 56.1217H52.2143C53.0866 56.1217 53.7607 56.3993 54.2365 56.9544C54.7123 57.4303 54.9503 58.1043 54.9503 58.9767V63.497C54.9503 64.3694 54.7123 65.0435 54.2365 65.5193C53.7607 65.9951 53.0866 66.233 52.2143 66.233H11.769V92.2845H49.5972C50.4696 92.2845 51.1437 92.5621 51.6195 93.1172C52.0953 93.593 52.3332 94.2671 52.3332 95.1395V99.5409C52.3332 100.334 52.0953 101.008 51.6195 101.563C51.1437 102.039 50.4696 102.277 49.5972 102.277H11.769V129.28H53.1659C54.0383 129.28 54.7123 129.518 55.1882 129.994C55.664 130.47 55.9019 131.144 55.9019 132.016V136.655C55.9019 137.448 55.664 138.122 55.1882 138.678C54.7123 139.153 54.0383 139.391 53.1659 139.391H3.08522ZM69.2779 139.391C68.4056 139.391 67.7315 139.153 67.2556 138.678C66.7798 138.122 66.5419 137.448 66.5419 136.655V58.9767C66.5419 58.1043 66.7798 57.4303 67.2556 56.9544C67.7315 56.3993 68.4056 56.1217 69.2779 56.1217H121.024C121.896 56.1217 122.57 56.3993 123.046 56.9544C123.522 57.4303 123.76 58.1043 123.76 58.9767V63.735C123.76 64.528 123.522 65.2021 123.046 65.7572C122.57 66.233 121.896 66.471 121.024 66.471H78.1996V90.5002H101.753C110.159 90.5002 116.702 92.681 121.381 97.0428C126.06 101.405 128.399 107.273 128.399 114.648C128.399 117.583 127.844 120.517 126.734 123.451C125.624 126.385 123.958 129.042 121.738 131.421C119.597 133.8 116.861 135.743 113.53 137.25C110.199 138.678 106.273 139.391 101.753 139.391H69.2779ZM78.1996 129.756H100.326C103.815 129.756 106.749 129.082 109.128 127.734C111.507 126.306 113.331 124.403 114.6 122.024C115.869 119.645 116.504 117.067 116.504 114.291C116.504 110.088 115.155 106.678 112.459 104.061C109.842 101.365 105.798 100.017 100.326 100.017H78.1996V129.756Z" fill="#50535D"/>
<path d="M191.565 86.5217C195.215 86.5217 198.174 83.5629 198.174 79.913C198.174 76.2632 195.215 73.3044 191.565 73.3044C187.915 73.3044 184.957 76.2632 184.957 79.913C184.957 83.5629 187.915 86.5217 191.565 86.5217Z" fill="#4E525C"/>
<path d="M170.087 99.7391C174.649 99.7391 178.348 96.0406 178.348 91.4783C178.348 86.9159 174.649 83.2174 170.087 83.2174C165.525 83.2174 161.826 86.9159 161.826 91.4783C161.826 96.0406 165.525 99.7391 170.087 99.7391Z" fill="#4E525C"/>
<path d="M189.913 119.826C195.388 119.826 199.826 115.388 199.826 109.913C199.826 104.438 195.388 100 189.913 100C184.438 100 180 104.438 180 109.913C180 115.388 184.438 119.826 189.913 119.826Z" fill="#4E525C"/>
<path d="M211.156 46.8696H66L198.638 30.6475C200.247 30.4506 201.88 30.6452 203.398 31.2146C204.643 31.6811 205.782 32.3892 206.751 33.2979L206.799 33.3426C208.008 34.4766 208.929 35.8833 209.484 37.4456L210.317 39.7887C210.317 39.7887 211.995 46.8696 211.156 46.8696Z" fill="#4E515A"/>
<path d="M197.82 0.139771L198.748 0.176944C199.938 0.224626 201.093 0.588369 202.096 1.23077C203.7 2.25835 204.791 3.91975 205.096 5.79982L205.326 7.2161L206.712 13.8856C207.47 16.5052 205.681 19.175 202.97 19.4705L43.0252 36.905L195.051 0.411388C195.957 0.193863 196.889 0.102465 197.82 0.139771Z" fill="#4F525B"/>
<path d="M169.484 127.063H211.22C210.342 135.028 204.576 138.776 201.831 139.362H176.569C169.925 139.362 165.09 139.948 155.206 135.848C145.321 131.749 137.083 120.621 134.337 113.007C132.14 106.916 131.957 96.413 132.141 91.923C132.324 88.6041 134.337 79.7409 140.927 70.8386C147.517 61.9364 157.898 56.7826 163.443 56.7826H204.081C212.428 56.7826 211.952 64.2012 210.671 67.9103L172.23 68.4955C170.528 68.4962 167.233 69.0817 160.697 72.0097C154.514 74.7791 151.727 79.428 150.812 80.7946C148.066 84.1135 143.454 93.9135 146.968 106.564C150.483 119.215 163.389 125.306 169.484 127.063Z" fill="#4E525C"/>
</g>
<defs>
<clipPath id="clip0_9_133">
<rect width="211" height="139" fill="white"/>
</clipPath>
</defs>
</svg>
