<svg width="27" height="27" viewBox="0 0 27 27" fill="none" xmlns="http://www.w3.org/2000/svg">
<g clip-path="url(#clip0_49_1055)">
<path d="M12.1926 23.7614C12.9146 23.7614 13.5 23.1051 13.5 22.2955C13.5 21.4858 12.9146 20.8296 12.1926 20.8296V23.7614ZM23.9594 12.0341C23.9594 12.8437 24.5448 13.5 25.2669 13.5C25.989 13.5 26.5743 12.8437 26.5743 12.0341H23.9594ZM1.73309 6.17046C1.01103 6.17046 0.425661 6.82678 0.425661 7.63637C0.425661 8.44596 1.01103 9.10228 1.73309 9.10228V6.17046ZM25.2669 9.10228C25.989 9.10228 26.5743 8.44596 26.5743 7.63637C26.5743 6.82678 25.989 6.17046 25.2669 6.17046V9.10228ZM20.0371 25.2273C20.0371 26.0369 20.6225 26.6932 21.3446 26.6932C22.0667 26.6932 22.652 26.0369 22.652 25.2273H20.0371ZM22.652 16.4318C22.652 15.6222 22.0667 14.9659 21.3446 14.9659C20.6225 14.9659 20.0371 15.6222 20.0371 16.4318H22.652ZM25.2667 22.2966C25.9887 22.2968 26.5742 21.6405 26.5743 20.831C26.5744 20.0214 25.9891 19.365 25.267 19.3648L25.2667 22.2966ZM17.4224 19.3636C16.7004 19.3635 16.115 20.0198 16.1149 20.8294C16.1147 21.6389 16.7001 22.2953 17.4222 22.2955L17.4224 19.3636ZM5.91688 3.23864H21.0831V0.306826H5.91688V3.23864ZM3.04053 17.6046V6.46364H0.425661V17.6046H3.04053ZM12.1926 20.8296H5.91688V23.7614H12.1926V20.8296ZM23.9594 6.46364V12.0341H26.5743V6.46364H23.9594ZM0.425661 17.6046C0.425661 18.4014 0.424642 19.0872 0.46563 19.6495C0.50786 20.2291 0.601106 20.8055 0.853166 21.3602L3.18302 20.0292C3.15009 19.9566 3.10083 19.809 3.07181 19.4108C3.04155 18.9954 3.04053 18.4498 3.04053 17.6046H0.425661ZM5.91688 20.8296C5.16308 20.8296 4.67635 20.8284 4.30591 20.7945C3.95072 20.762 3.81904 20.7067 3.7544 20.6698L2.56728 23.282C3.06198 23.5646 3.57609 23.6692 4.09297 23.7165C4.59459 23.7625 5.20622 23.7614 5.91688 23.7614V20.8296ZM0.853166 21.3602C1.22921 22.1877 1.82924 22.8604 2.56728 23.282L3.7544 20.6698C3.50839 20.5292 3.30838 20.3051 3.18302 20.0292L0.853166 21.3602ZM21.0831 3.23864C21.837 3.23864 22.3236 3.23979 22.6941 3.27372C23.0492 3.30625 23.1809 3.36149 23.2456 3.39841L24.4327 0.786149C23.938 0.503537 23.4239 0.398988 22.907 0.351639C22.4054 0.305683 21.7938 0.306826 21.0831 0.306826V3.23864ZM26.5743 6.46364C26.5743 5.66685 26.5754 4.98108 26.5343 4.41866C26.4921 3.83912 26.3989 3.2627 26.1468 2.70803L23.8169 4.03905C23.8499 4.11152 23.8992 4.25917 23.9282 4.65741C23.9584 5.07275 23.9594 5.61847 23.9594 6.46364H26.5743ZM23.2456 3.39841C23.4916 3.53897 23.6916 3.76322 23.8169 4.03905L26.1468 2.70803C25.7708 1.88054 25.1708 1.20777 24.4327 0.786149L23.2456 3.39841ZM5.91688 0.306826C5.20622 0.306826 4.59459 0.305683 4.09297 0.351639C3.57609 0.398988 3.06198 0.503537 2.56728 0.786149L3.7544 3.39841C3.81904 3.36149 3.95072 3.30625 4.30591 3.27372C4.67635 3.23979 5.16308 3.23864 5.91688 3.23864V0.306826ZM3.04053 6.46364C3.04053 5.61847 3.04155 5.07275 3.07181 4.65741C3.10083 4.25917 3.15009 4.11152 3.18302 4.03905L0.853166 2.70803C0.601106 3.2627 0.50786 3.83912 0.46563 4.41866C0.424642 4.98108 0.425661 5.66685 0.425661 6.46364H3.04053ZM2.56728 0.786149C1.82924 1.20777 1.22921 1.88054 0.853166 2.70803L3.18302 4.03905C3.30838 3.76322 3.50839 3.53897 3.7544 3.39841L2.56728 0.786149ZM1.73309 9.10228H25.2669V6.17046H1.73309V9.10228ZM22.652 25.2273V16.4318H20.0371V25.2273H22.652ZM25.267 19.3648L17.4224 19.3636L17.4222 22.2955L25.2667 22.2966L25.267 19.3648Z" fill="#F3F6F9" fill-opacity="0.8"/>
</g>
<defs>
<clipPath id="clip0_49_1055">
<rect width="27" height="27" fill="white"/>
</clipPath>
</defs>
</svg>
