<svg width="27" height="27" viewBox="0 0 27 27" fill="none" xmlns="http://www.w3.org/2000/svg">
<g clip-path="url(#clip0_49_1110)">
<path d="M5.12069 18.8867H7.91379M0.93103 11.7044H26.069M0.93103 6.31773H26.069M13.5 18.8867H19.0862M5.4 26.069H21.6C23.1643 26.069 23.9465 26.069 24.5439 25.6775C25.0695 25.3333 25.4968 24.7839 25.7645 24.1082C26.069 23.3401 26.069 22.3344 26.069 20.3231V6.67684C26.069 4.66563 26.069 3.66 25.7645 2.89182C25.4968 2.2161 25.0695 1.66673 24.5439 1.32245C23.9465 0.93103 23.1643 0.93103 21.6 0.93103H5.4C3.83572 0.93103 3.05357 0.93103 2.45609 1.32245C1.93053 1.66673 1.50324 2.2161 1.23546 2.89182C0.93103 3.66 0.93103 4.66561 0.93103 6.67684V20.3231C0.93103 22.3344 0.93103 23.3401 1.23546 24.1082C1.50324 24.7839 1.93053 25.3333 2.45609 25.6775C3.05357 26.069 3.8357 26.069 5.4 26.069Z" stroke="#F3F6F9" stroke-width="2" stroke-linecap="round" stroke-linejoin="round"/>
</g>
<defs>
<clipPath id="clip0_49_1110">
<rect width="27" height="27" fill="white"/>
</clipPath>
</defs>
</svg>
