<svg width="27" height="27" viewBox="0 0 27 27" fill="none" xmlns="http://www.w3.org/2000/svg">
<g clip-path="url(#clip0_16_228)">
<path d="M5.39362 23.5491C5.31953 24.2953 5.86438 24.9602 6.61059 25.0343C7.35679 25.1084 8.02177 24.5636 8.09585 23.8174L5.39362 23.5491ZM18.9042 23.8174C18.9783 24.5636 19.6432 25.1084 20.3894 25.0343C21.1356 24.9602 21.6805 24.2953 21.6064 23.5491L18.9042 23.8174ZM24.3621 13.5C24.3621 19.499 19.499 24.3621 13.5 24.3621V27.0776C20.9986 27.0776 27.0776 20.9986 27.0776 13.5H24.3621ZM13.5 24.3621C7.50105 24.3621 2.63794 19.499 2.63794 13.5H-0.0775757C-0.0775757 20.9986 6.00131 27.0776 13.5 27.0776V24.3621ZM2.63794 13.5C2.63794 7.50105 7.50105 2.63794 13.5 2.63794V-0.0775757C6.00131 -0.0775757 -0.0775757 6.00131 -0.0775757 13.5H2.63794ZM13.5 2.63794C19.499 2.63794 24.3621 7.50105 24.3621 13.5H27.0776C27.0776 6.00131 20.9986 -0.0775757 13.5 -0.0775757V2.63794ZM14.8578 10.7845C14.8578 11.5344 14.2499 12.1423 13.5 12.1423V14.8578C15.7497 14.8578 17.5733 13.0342 17.5733 10.7845H14.8578ZM13.5 12.1423C12.7501 12.1423 12.1423 11.5344 12.1423 10.7845H9.42674C9.42674 13.0342 11.2503 14.8578 13.5 14.8578V12.1423ZM12.1423 10.7845C12.1423 10.0346 12.7501 9.42674 13.5 9.42674V6.71122C11.2503 6.71122 9.42674 8.53489 9.42674 10.7845H12.1423ZM13.5 9.42674C14.2499 9.42674 14.8578 10.0346 14.8578 10.7845H17.5733C17.5733 8.53489 15.7497 6.71122 13.5 6.71122V9.42674ZM8.09585 23.8174C8.3682 21.0743 10.6846 18.931 13.5 18.931V16.2155C9.27492 16.2155 5.8025 19.4308 5.39362 23.5491L8.09585 23.8174ZM13.5 18.931C16.3153 18.931 18.6318 21.0743 18.9042 23.8174L21.6064 23.5491C21.1976 19.4308 17.7251 16.2155 13.5 16.2155V18.931Z" fill="#F3F6F9" fill-opacity="0.8"/>
</g>
<defs>
<clipPath id="clip0_16_228">
<rect width="27" height="27" fill="white"/>
</clipPath>
</defs>
</svg>
