<svg width="22" height="27" viewBox="0 0 22 27" fill="none" xmlns="http://www.w3.org/2000/svg">
<g clip-path="url(#clip0_49_1061)">
<path d="M11 27C12.5125 27 13.75 25.785 13.75 24.3H8.25C8.25 25.785 9.4875 27 11 27ZM19.25 18.9V12.15C19.25 8.0055 17.0087 4.536 13.0625 3.618V2.7C13.0625 1.5795 12.1412 0.675003 11 0.675003C9.85875 0.675003 8.9375 1.5795 8.9375 2.7V3.618C5.005 4.536 2.75 7.992 2.75 12.15V18.9L0 21.6V22.95H22V21.6L19.25 18.9ZM16.5 20.25H5.5V12.15C5.5 8.802 7.57625 6.075 11 6.075C14.4237 6.075 16.5 8.802 16.5 12.15V20.25Z" fill="#4E525C"/>
</g>
<defs>
<clipPath id="clip0_49_1061">
<rect width="22" height="27" fill="white"/>
</clipPath>
</defs>
</svg>
