<svg width="37" height="37" viewBox="0 0 37 37" fill="none" xmlns="http://www.w3.org/2000/svg">
<rect width="37" height="37" rx="10" fill="#3B303C"/>
<path d="M18.5 30.8332C19.3515 30.8332 20.0417 30.143 20.0417 29.2915C20.0417 28.44 19.3515 27.7498 18.5 27.7498V30.8332ZM30.8333 21.5832C30.8333 22.4346 31.5236 23.1248 32.375 23.1248C33.2265 23.1248 33.9167 22.4346 33.9167 21.5832H30.8333ZM4.62501 12.3332C3.77358 12.3332 3.08335 13.0234 3.08335 13.8748C3.08335 14.7263 3.77358 15.4165 4.62501 15.4165V12.3332ZM32.375 15.4165C33.2265 15.4165 33.9167 14.7263 33.9167 13.8748C33.9167 13.0234 33.2265 12.3332 32.375 12.3332V15.4165ZM32.3749 29.2926C33.2262 29.2927 33.9165 28.6025 33.9167 27.7511C33.9168 26.8996 33.2266 26.2094 32.3752 26.2093L32.3749 29.2926ZM24.6668 26.2082C23.8155 26.208 23.1252 26.8982 23.125 27.7497C23.1249 28.601 23.8151 29.2914 24.6665 29.2915L24.6668 26.2082ZM9.55835 9.24984H27.4417V6.16651H9.55835V9.24984ZM6.16668 24.3582V12.6415H3.08335V24.3582H6.16668ZM18.5 27.7498H9.55835V30.8332H18.5V27.7498ZM30.8333 12.6415V21.5832H33.9167V12.6415H30.8333ZM3.08335 24.3582C3.08335 25.1962 3.08214 25.9174 3.13048 26.5088C3.18027 27.1184 3.29022 27.7246 3.58744 28.3079L6.33471 26.9081C6.29587 26.8318 6.23778 26.6765 6.20357 26.2578C6.16788 25.8209 6.16668 25.2471 6.16668 24.3582H3.08335ZM9.55835 27.7498C8.6695 27.7498 8.09557 27.7486 7.65877 27.713C7.23994 27.6788 7.08467 27.6206 7.00845 27.5818L5.60864 30.329C6.19198 30.6263 6.79819 30.7362 7.40767 30.786C7.99917 30.8344 8.72037 30.8332 9.55835 30.8332V27.7498ZM3.58744 28.3079C4.03085 29.1782 4.73839 29.8857 5.60864 30.329L7.00845 27.5818C6.71836 27.434 6.48252 27.1982 6.33471 26.9081L3.58744 28.3079ZM27.4417 9.24984C28.3306 9.24984 28.9044 9.25104 29.3413 9.28673C29.76 9.32094 29.9153 9.37903 29.9916 9.41787L31.3914 6.6706C30.8081 6.37338 30.2019 6.26343 29.5923 6.21364C29.0009 6.1653 28.2797 6.16651 27.4417 6.16651V9.24984ZM33.9167 12.6415C33.9167 11.8035 33.9179 11.0823 33.8695 10.4908C33.8197 9.88135 33.7098 9.27514 33.4126 8.6918L30.6653 10.0916C30.7042 10.1678 30.7623 10.3231 30.7965 10.7419C30.8321 11.1787 30.8333 11.7527 30.8333 12.6415H33.9167ZM29.9916 9.41787C30.2817 9.56568 30.5175 9.80153 30.6653 10.0916L33.4126 8.6918C32.9692 7.82155 32.2617 7.11402 31.3914 6.6706L29.9916 9.41787ZM9.55835 6.16651C8.72037 6.16651 7.99917 6.1653 7.40767 6.21364C6.79819 6.26343 6.19198 6.37338 5.60864 6.6706L7.00845 9.41787C7.08467 9.37903 7.23994 9.32094 7.65877 9.28673C8.09557 9.25104 8.6695 9.24984 9.55835 9.24984V6.16651ZM6.16668 12.6415C6.16668 11.7527 6.16788 11.1787 6.20357 10.7419C6.23778 10.3231 6.29587 10.1678 6.33471 10.0916L3.58744 8.6918C3.29022 9.27514 3.18027 9.88135 3.13048 10.4908C3.08214 11.0823 3.08335 11.8035 3.08335 12.6415H6.16668ZM5.60864 6.6706C4.73839 7.11402 4.03085 7.82155 3.58744 8.6918L6.33471 10.0916C6.48252 9.80153 6.71836 9.56568 7.00845 9.41787L5.60864 6.6706ZM4.62501 15.4165H32.375V12.3332H4.62501V15.4165ZM32.3752 26.2093L24.6668 26.2082L24.6665 29.2915L32.3749 29.2926L32.3752 26.2093Z" fill="#F77383"/>
</svg>
