<svg width="37" height="37" viewBox="0 0 37 37" fill="none" xmlns="http://www.w3.org/2000/svg">
<rect width="37" height="37" rx="10" fill="#394C4B"/>
<path d="M16.9583 29.2917C17.8098 29.2917 18.5 28.6015 18.5 27.75C18.5 26.8985 17.8098 26.2083 16.9583 26.2083V29.2917ZM30.8333 16.9583C30.8333 17.8098 31.5236 18.5 32.375 18.5C33.2265 18.5 33.9167 17.8098 33.9167 16.9583H30.8333ZM4.62501 10.7917C3.77358 10.7917 3.08335 11.4819 3.08335 12.3333C3.08335 13.1848 3.77358 13.875 4.62501 13.875V10.7917ZM32.375 13.875C33.2265 13.875 33.9167 13.1848 33.9167 12.3333C33.9167 11.4819 33.2265 10.7917 32.375 10.7917V13.875ZM26.2083 30.8333C26.2083 31.6848 26.8986 32.375 27.75 32.375C28.6015 32.375 29.2917 31.6848 29.2917 30.8333H26.2083ZM29.2917 21.5833C29.2917 20.7319 28.6015 20.0417 27.75 20.0417C26.8986 20.0417 26.2083 20.7319 26.2083 21.5833H29.2917ZM32.3749 27.7512C33.2262 27.7514 33.9165 27.0612 33.9167 26.2099C33.9168 25.3584 33.2266 24.6681 32.3752 24.6679L32.3749 27.7512ZM23.1252 24.6667C22.2739 24.6665 21.5835 25.3567 21.5833 26.2082C21.5832 27.0595 22.2734 27.7498 23.1249 27.75L23.1252 24.6667ZM9.55835 7.70834H27.4417V4.625H9.55835V7.70834ZM6.16668 22.8167V11.1H3.08335V22.8167H6.16668ZM16.9583 26.2083H9.55835V29.2917H16.9583V26.2083ZM30.8333 11.1V16.9583H33.9167V11.1H30.8333ZM3.08335 22.8167C3.08335 23.6547 3.08214 24.3759 3.13048 24.9673C3.18027 25.5769 3.29022 26.1831 3.58744 26.7664L6.33471 25.3666C6.29587 25.2903 6.23778 25.135 6.20357 24.7163C6.16788 24.2794 6.16668 23.7056 6.16668 22.8167H3.08335ZM9.55835 26.2083C8.6695 26.2083 8.09557 26.2071 7.65877 26.1715C7.23994 26.1373 7.08467 26.0791 7.00845 26.0403L5.60864 28.7875C6.19198 29.0848 6.79819 29.1947 7.40767 29.2445C7.99917 29.2929 8.72037 29.2917 9.55835 29.2917V26.2083ZM3.58744 26.7664C4.03085 27.6367 4.73839 28.3442 5.60864 28.7875L7.00845 26.0403C6.71836 25.8925 6.48252 25.6567 6.33471 25.3666L3.58744 26.7664ZM27.4417 7.70834C28.3306 7.70834 28.9044 7.70954 29.3413 7.74523C29.76 7.77944 29.9153 7.83753 29.9916 7.87636L31.3914 5.1291C30.8081 4.83188 30.2019 4.72193 29.5923 4.67213C29.0009 4.6238 28.2797 4.625 27.4417 4.625V7.70834ZM33.9167 11.1C33.9167 10.262 33.9179 9.54082 33.8695 8.94933C33.8197 8.33985 33.7098 7.73364 33.4126 7.1503L30.6653 8.5501C30.7042 8.62632 30.7623 8.7816 30.7965 9.20042C30.8321 9.63722 30.8333 10.2112 30.8333 11.1H33.9167ZM29.9916 7.87636C30.2817 8.02418 30.5175 8.26002 30.6653 8.5501L33.4126 7.1503C32.9692 6.28004 32.2617 5.57251 31.3914 5.1291L29.9916 7.87636ZM9.55835 4.625C8.72037 4.625 7.99917 4.6238 7.40767 4.67213C6.79819 4.72193 6.19198 4.83188 5.60864 5.1291L7.00845 7.87636C7.08467 7.83753 7.23994 7.77944 7.65877 7.74523C8.09557 7.70954 8.6695 7.70834 9.55835 7.70834V4.625ZM6.16668 11.1C6.16668 10.2112 6.16788 9.63722 6.20357 9.20042C6.23778 8.7816 6.29587 8.62632 6.33471 8.5501L3.58744 7.1503C3.29022 7.73364 3.18027 8.33985 3.13048 8.94933C3.08214 9.54082 3.08335 10.262 3.08335 11.1H6.16668ZM5.60864 5.1291C4.73839 5.57251 4.03085 6.28004 3.58744 7.1503L6.33471 8.5501C6.48252 8.26002 6.71836 8.02418 7.00845 7.87636L5.60864 5.1291ZM4.62501 13.875H32.375V10.7917H4.62501V13.875ZM29.2917 30.8333V21.5833H26.2083V30.8333H29.2917ZM32.3752 24.6679L23.1252 24.6667L23.1249 27.75L32.3749 27.7512L32.3752 24.6679Z" fill="#B0D5BE"/>
</svg>
