<svg width="21" height="21" viewBox="0 0 21 21" fill="none" xmlns="http://www.w3.org/2000/svg">
<g clip-path="url(#clip0_17_263)">
<path fill-rule="evenodd" clip-rule="evenodd" d="M15.0358 13.5509L20.6925 19.2075L19.2075 20.6925L13.5509 15.0358C12.1285 16.1416 10.3411 16.8 8.4 16.8C3.76081 16.8 0 13.0392 0 8.4C0 3.76081 3.76081 0 8.4 0C13.0392 0 16.8 3.76081 16.8 8.4C16.8 10.3411 16.1416 12.1285 15.0358 13.5509ZM8.4 14.7C11.8794 14.7 14.7 11.8794 14.7 8.4C14.7 4.92061 11.8794 2.1 8.4 2.1C4.92061 2.1 2.1 4.92061 2.1 8.4C2.1 11.8794 4.92061 14.7 8.4 14.7Z" fill="#F3F6F9" fill-opacity="0.6"/>
</g>
<defs>
<clipPath id="clip0_17_263">
<rect width="21" height="21" fill="white"/>
</clipPath>
</defs>
</svg>
